<svg width="24" height="24" viewBox="0 0 24 24" fill="none" xmlns="http://www.w3.org/2000/svg">
<path fill-rule="evenodd" clip-rule="evenodd" d="M7.33333 5C7.15652 5 6.98695 5.07024 6.86193 5.19526C6.7369 5.32029 6.66667 5.48986 6.66667 5.66667V18H16.3333V5.66667C16.3333 5.48986 16.2631 5.32029 16.1381 5.19526C16.013 5.07024 15.8435 5 15.6667 5H7.33333ZM18.3333 18V5.66667C18.3333 4.95942 18.0524 4.28115 17.5523 3.78105C17.0522 3.28095 16.3739 3 15.6667 3H7.33333C6.62609 3 5.94781 3.28095 5.44772 3.78105C4.94762 4.28115 4.66667 4.95942 4.66667 5.66667V18H4C3.44772 18 3 18.4477 3 19C3 19.5523 3.44772 20 4 20H19C19.5523 20 20 19.5523 20 19C20 18.4477 19.5523 18 19 18H18.3333ZM8 8.16667C8 7.61438 8.44772 7.16667 9 7.16667H9.83333C10.3856 7.16667 10.8333 7.61438 10.8333 8.16667C10.8333 8.71895 10.3856 9.16667 9.83333 9.16667H9C8.44772 9.16667 8 8.71895 8 8.16667ZM12.1667 8.16667C12.1667 7.61438 12.6144 7.16667 13.1667 7.16667H14C14.5523 7.16667 15 7.61438 15 8.16667C15 8.71895 14.5523 9.16667 14 9.16667H13.1667C12.6144 9.16667 12.1667 8.71895 12.1667 8.16667ZM8 11.5C8 10.9477 8.44772 10.5 9 10.5H9.83333C10.3856 10.5 10.8333 10.9477 10.8333 11.5C10.8333 12.0523 10.3856 12.5 9.83333 12.5H9C8.44772 12.5 8 12.0523 8 11.5ZM12.1667 11.5C12.1667 10.9477 12.6144 10.5 13.1667 10.5H14C14.5523 10.5 15 10.9477 15 11.5C15 12.0523 14.5523 12.5 14 12.5H13.1667C12.6144 12.5 12.1667 12.0523 12.1667 11.5ZM8 14.8333C8 14.281 8.44772 13.8333 9 13.8333H9.83333C10.3856 13.8333 10.8333 14.281 10.8333 14.8333C10.8333 15.3856 10.3856 15.8333 9.83333 15.8333H9C8.44772 15.8333 8 15.3856 8 14.8333ZM12.1667 14.8333C12.1667 14.281 12.6144 13.8333 13.1667 13.8333H14C14.5523 13.8333 15 14.281 15 14.8333C15 15.3856 14.5523 15.8333 14 15.8333H13.1667C12.6144 15.8333 12.1667 15.3856 12.1667 14.8333Z" fill="#001489"/>
</svg>
