<svg width="25" height="24" viewBox="0 0 25 24" fill="none" xmlns="http://www.w3.org/2000/svg">
<path fill-rule="evenodd" clip-rule="evenodd" d="M14.9379 11C14.8669 11 14.8062 11.0275 14.7672 11.065C14.7295 11.1013 14.7157 11.1422 14.7157 11.1765V11.3529H17.6046V11.1765C17.6046 11.1422 17.5908 11.1013 17.5531 11.065C17.5141 11.0275 17.4534 11 17.3824 11H14.9379ZM19.6046 11.3529V11.1765C19.6046 10.5867 19.3608 10.0291 18.9401 9.62412C18.5207 9.2204 17.9597 9 17.3824 9H14.9379C14.3606 9 13.7996 9.2204 13.3802 9.62412C12.9595 10.0291 12.7157 10.5867 12.7157 11.1765V11.3529H11.8824C11.3051 11.3529 10.7441 11.5733 10.3246 11.9771C9.90393 12.382 9.66016 12.9396 9.66016 13.5294V18.8235C9.66016 19.4133 9.90393 19.9709 10.3246 20.3759C10.7441 20.7796 11.3051 21 11.8824 21H20.4379C21.0153 21 21.5762 20.7796 21.9957 20.3759C22.4164 19.9709 22.6602 19.4133 22.6602 18.8235V13.5294C22.6602 12.9396 22.4164 12.382 21.9957 11.9771C21.5762 11.5733 21.0153 11.3529 20.4379 11.3529H19.6046ZM11.8824 13.3529C11.8114 13.3529 11.7506 13.3804 11.7116 13.418C11.6739 13.4543 11.6602 13.4952 11.6602 13.5294V18.8235C11.6602 18.8578 11.6739 18.8987 11.7116 18.935C11.7506 18.9725 11.8114 19 11.8824 19H20.4379C20.5089 19 20.5697 18.9725 20.6087 18.935C20.6464 18.8987 20.6602 18.8578 20.6602 18.8235V13.5294C20.6602 13.4952 20.6464 13.4543 20.6087 13.418C20.5697 13.3804 20.5089 13.3529 20.4379 13.3529H11.8824Z" fill="#001489"/>
<path fill-rule="evenodd" clip-rule="evenodd" d="M3.86876 1.87574C4.6918 1.30628 5.66327 1 6.66016 1C7.65704 1 8.62851 1.30628 9.45155 1.87574C10.2741 2.4449 10.9101 3.25012 11.2843 4.18568C11.6584 5.12098 11.7557 6.14824 11.5652 7.13894C11.3748 8.12966 10.9041 9.04426 10.2076 9.76535C10.2075 9.76542 10.2077 9.76527 10.2076 9.76535L7.37958 12.6946C7.19114 12.8898 6.93147 13 6.66016 13C6.38884 13 6.12917 12.8898 5.94073 12.6946L3.11296 9.76558C2.41642 9.0445 1.94552 8.12966 1.75508 7.13894C1.56465 6.14824 1.66195 5.12098 2.03603 4.18568C2.41021 3.25012 3.04618 2.4449 3.86876 1.87574ZM6.66016 3C6.07469 3 5.49935 3.1796 5.00674 3.52044C4.51368 3.86159 4.12426 4.3502 3.89301 4.92839C3.66166 5.50683 3.60068 6.14521 3.71913 6.76141C3.83755 7.37747 4.12895 7.93874 4.55136 8.37598L6.66016 10.5603L8.76873 8.37621C9.19113 7.93898 9.48276 7.37747 9.60118 6.76141C9.71963 6.14521 9.65865 5.50683 9.4273 4.92839C9.19605 4.3502 8.80663 3.86159 8.31357 3.52044C7.82096 3.1796 7.24563 3 6.66016 3ZM6.66015 5.14259C7.21244 5.14259 7.66015 5.59031 7.66015 6.14259V6.15295C7.66015 6.70523 7.21244 7.15295 6.66015 7.15295C6.10787 7.15295 5.66015 6.70523 5.66015 6.15295V6.14259C5.66015 5.59031 6.10787 5.14259 6.66015 5.14259Z" fill="#001489"/>
</svg>
