<svg width="24" height="24" viewBox="0 0 24 24" fill="none" xmlns="http://www.w3.org/2000/svg">
<path d="M6.36683 13.4088L10.2901 12.749C10.7041 12.6786 11.0032 12.3156 10.9859 11.9035C10.9598 11.2566 10.988 10.3855 11.0704 10.1207L11.1289 9.93284C11.4259 8.98059 11.9244 7.38568 11.5993 5.62636C11.4605 4.87694 11.0726 3.6514 10.4353 2.66712C9.62464 1.41809 8.62541 0.850157 7.5438 1.03378C5.32208 1.40742 4.35319 3.78805 4.1321 5.13529C4.02372 5.7993 3.73544 8.13937 4.62847 10.3449C5.26139 11.9078 5.39794 12.7149 5.40011 12.7213C5.43262 12.9391 5.55617 13.1376 5.73608 13.2657C5.87913 13.3682 6.05037 13.4237 6.22811 13.4237C6.27363 13.4237 6.32131 13.4195 6.369 13.4109L6.36683 13.4088ZM6.85886 11.6537C6.73531 11.2203 6.52506 10.5755 6.18259 9.73428C5.44996 7.92159 5.69273 5.95944 5.78376 5.40004C5.92465 4.54814 6.53156 2.87636 7.82342 2.66072C7.85593 2.65431 7.88628 2.65218 7.91879 2.65218C8.29377 2.65218 8.72511 3.03649 9.13261 3.73467C9.57696 4.49263 9.84573 5.36161 9.94977 5.92527C10.2012 7.2896 9.77854 8.64325 9.52493 9.45245L9.46641 9.64461C9.36237 9.98622 9.30601 10.5221 9.30168 11.2459L6.85886 11.6559V11.6537Z" fill="url(#paint0_linear_420_6679)"/>
<path d="M11.4171 14.0179C11.2741 13.6507 10.8861 13.4329 10.4938 13.4991L6.52499 14.1652C6.10232 14.2357 5.8032 14.6093 5.82921 15.0321C5.83788 15.1645 5.92458 16.358 6.19552 17.3593C6.551 18.6682 7.6391 19.4838 9.035 19.4838C9.30594 19.4838 9.58339 19.4517 9.86083 19.3877C11.0747 19.108 11.8268 18.128 11.92 16.7017C11.998 15.5296 11.4388 14.0777 11.415 14.0179H11.4171ZM10.251 16.595C10.2055 17.2739 9.94753 17.6732 9.47934 17.78C8.64701 17.9721 8.00759 17.6476 7.81468 16.9323C7.70196 16.5138 7.62393 16.0377 7.57625 15.6619L10.0559 15.2456C10.1578 15.6192 10.2792 16.1658 10.251 16.595Z" fill="url(#paint1_linear_420_6679)"/>
<path d="M20.9976 9.7885C20.9694 8.42204 20.3474 5.93253 18.1993 5.2557C17.1546 4.92903 16.0838 5.35178 15.1041 6.47911C14.3324 7.36731 13.7754 8.52666 13.5326 9.24833C12.9626 10.9457 13.2292 12.594 13.3874 13.5762L13.4177 13.7683C13.4633 14.0544 13.3635 14.9149 13.2487 15.5469C13.175 15.9525 13.4177 16.3539 13.8187 16.4799L17.6076 17.6713C17.69 17.6969 17.7767 17.7118 17.8655 17.7118C18.0021 17.7118 18.1386 17.6777 18.2557 17.6158C18.4529 17.5133 18.6047 17.3339 18.6675 17.1247C18.6762 17.0927 18.9168 16.3454 19.7686 14.8764C20.9651 12.8161 21.0128 10.4611 20.9976 9.78637V9.7885ZM15.0759 13.5164L15.0434 13.3178C14.909 12.483 14.6814 11.0824 15.1236 9.76715C15.5766 8.41777 16.8316 6.55384 17.6921 6.82713C18.9428 7.21999 19.3069 8.95795 19.3243 9.82053C19.3373 10.3863 19.2983 12.3634 18.3164 14.0566C17.859 14.8444 17.5599 15.4529 17.3757 15.865L15.013 15.122C15.1106 14.4067 15.1323 13.8644 15.0759 13.5142V13.5164Z" fill="url(#paint2_linear_420_6679)"/>
<path d="M17.2135 18.0461L13.3791 16.8419C12.9998 16.7202 12.5836 16.8825 12.3907 17.2263C12.3582 17.2839 11.5996 18.6354 11.5085 19.8161C11.4001 21.2402 12.0049 22.3142 13.1667 22.7583C13.585 22.9184 14.0077 22.9996 14.426 22.9996C15.6203 22.9996 16.6131 22.3484 17.0834 21.2552C17.5039 20.2773 17.7662 19.0539 17.777 19.0005C17.8637 18.5863 17.621 18.1764 17.2113 18.0483L17.2135 18.0461ZM15.9606 19.3848C15.8588 19.7521 15.7157 20.2133 15.5445 20.6104C15.2519 21.2915 14.5734 21.5263 13.7758 21.221C13.3292 21.0502 13.1298 20.6189 13.1797 19.94C13.2122 19.5129 13.4094 18.9877 13.5633 18.6312L15.9606 19.3848Z" fill="url(#paint3_linear_420_6679)"/>
<defs>
<linearGradient id="paint0_linear_420_6679" x1="4.00049" y1="7.21186" x2="11.706" y2="7.21186" gradientUnits="userSpaceOnUse">
<stop stop-color="#06FEF1"/>
<stop offset="0.166667" stop-color="#05FEEC"/>
<stop offset="0.333333" stop-color="#05FEDE"/>
<stop offset="0.5" stop-color="#04FEC6"/>
<stop offset="0.666667" stop-color="#02FEA6"/>
<stop offset="0.833333" stop-color="#00FE7C"/>
<stop offset="1" stop-color="#00FF66"/>
</linearGradient>
<linearGradient id="paint1_linear_420_6679" x1="5.82764" y1="16.4855" x2="11.9279" y2="16.4855" gradientUnits="userSpaceOnUse">
<stop stop-color="#06FEF1"/>
<stop offset="0.166667" stop-color="#05FEEC"/>
<stop offset="0.333333" stop-color="#05FEDE"/>
<stop offset="0.5" stop-color="#04FEC6"/>
<stop offset="0.666667" stop-color="#02FEA6"/>
<stop offset="0.833333" stop-color="#00FE7C"/>
<stop offset="1" stop-color="#00FF66"/>
</linearGradient>
<linearGradient id="paint2_linear_420_6679" x1="13.1851" y1="11.4301" x2="21.0001" y2="11.4301" gradientUnits="userSpaceOnUse">
<stop stop-color="#06FEF1"/>
<stop offset="0.166667" stop-color="#05FEEC"/>
<stop offset="0.333333" stop-color="#05FEDE"/>
<stop offset="0.5" stop-color="#04FEC6"/>
<stop offset="0.666667" stop-color="#02FEA6"/>
<stop offset="0.833333" stop-color="#00FE7C"/>
<stop offset="1" stop-color="#00FF66"/>
</linearGradient>
<linearGradient id="paint3_linear_420_6679" x1="11.4961" y1="19.9007" x2="17.795" y2="19.9007" gradientUnits="userSpaceOnUse">
<stop stop-color="#06FEF1"/>
<stop offset="0.166667" stop-color="#05FEEC"/>
<stop offset="0.333333" stop-color="#05FEDE"/>
<stop offset="0.5" stop-color="#04FEC6"/>
<stop offset="0.666667" stop-color="#02FEA6"/>
<stop offset="0.833333" stop-color="#00FE7C"/>
<stop offset="1" stop-color="#00FF66"/>
</linearGradient>
</defs>
</svg>
