<svg width="25" height="24" viewBox="0 0 25 24" fill="none" xmlns="http://www.w3.org/2000/svg">
<path fill-rule="evenodd" clip-rule="evenodd" d="M11.7179 6.94315C13.1769 6.49314 14.7787 6.79772 15.9093 7.71688L11.7179 6.94315ZM16.9813 6.3604C15.3911 5.06799 13.1971 4.66997 11.2186 5.28032C9.45543 5.82492 8.04976 7.11596 7.45515 8.78119C4.9618 9.09493 2.99316 11.1808 2.99316 13.7644C2.99316 16.5706 5.31427 18.7894 8.10814 18.7894V18.7931H18.968C21.1963 18.7931 22.9932 16.9528 22.9932 14.6915C22.9932 12.4488 21.2244 10.6196 19.0212 10.5911C19.0385 8.97451 18.2942 7.42528 16.9813 6.3604ZM11.7179 6.94315C10.2614 7.39313 9.22975 8.50295 8.94472 9.79866C8.85732 10.196 8.50963 10.4786 8.10814 10.4786C6.19878 10.4786 4.70745 11.981 4.70745 13.7644C4.70745 15.5489 6.19891 17.0512 8.10814 17.0512V17.0549H18.968C20.2396 17.0549 21.2789 16.0029 21.2789 14.6915C21.2789 13.3809 20.2396 12.3289 18.9689 12.3289H18.0638C17.8038 12.3289 17.5578 12.2092 17.3951 12.0036C17.2324 11.7979 17.1706 11.5284 17.2271 11.2711C17.5096 9.98337 17.0329 8.62797 15.9102 7.71754L15.9093 7.71688" fill="#001489"/>
<path d="M13.4535 15.8797C13.1147 16.206 12.5758 16.206 12.237 15.8797L9.7728 13.5067L9.77136 13.5053C9.41897 13.1644 9.41945 12.6013 9.7728 12.261C10.1116 11.9348 10.6505 11.9348 10.9893 12.261L11.9716 13.207V8.65019C11.9716 8.3622 12.2019 8.12873 12.4859 8.12873H13.2046C13.4886 8.12873 13.7189 8.3622 13.7189 8.65019V13.207L14.7011 12.261C15.04 11.9348 15.5789 11.9348 15.9177 12.261C16.2715 12.6018 16.2715 13.1659 15.9177 13.5067L13.4535 15.8797Z" fill="#001489"/>
</svg>
