<svg width="24" height="24" viewBox="0 0 24 24" fill="none" xmlns="http://www.w3.org/2000/svg">
<path fill-rule="evenodd" clip-rule="evenodd" d="M13.6088 0.879245C13.8639 1.03692 14.0192 1.31546 14.0192 1.61539V5.76763L20.557 10.1261C20.7977 10.2866 20.9423 10.5568 20.9423 10.8462V21.5192H22.3846C22.8626 21.5192 23.25 21.9067 23.25 22.3846C23.25 22.8626 22.8626 23.25 22.3846 23.25H1.61538C1.13745 23.25 0.75 22.8626 0.75 22.3846C0.75 21.9067 1.13745 21.5192 1.61538 21.5192H3.05769V6.23077C3.05769 5.90299 3.24289 5.60334 3.53607 5.45675L12.7668 0.841362C13.0351 0.707232 13.3537 0.721567 13.6088 0.879245ZM4.78846 21.5192H12.2885V6.24259C12.2883 6.23419 12.2883 6.22577 12.2885 6.21736V3.01561L4.78846 6.76561V21.5192ZM14.0192 7.84776V21.5192H19.2115V11.3093L14.0192 7.84776ZM8.53846 7.67308C9.0164 7.67308 9.40385 8.06052 9.40385 8.53846V8.55C9.40385 9.02794 9.0164 9.41539 8.53846 9.41539C8.06052 9.41539 7.67308 9.02794 7.67308 8.55V8.53846C7.67308 8.06052 8.06052 7.67308 8.53846 7.67308ZM8.53846 11.1346C9.0164 11.1346 9.40385 11.5221 9.40385 12V12.0115C9.40385 12.4895 9.0164 12.8769 8.53846 12.8769C8.06052 12.8769 7.67308 12.4895 7.67308 12.0115V12C7.67308 11.5221 8.06052 11.1346 8.53846 11.1346ZM8.53846 14.5962C9.0164 14.5962 9.40385 14.9836 9.40385 15.4615V15.4731C9.40385 15.951 9.0164 16.3385 8.53846 16.3385C8.06052 16.3385 7.67308 15.951 7.67308 15.4731V15.4615C7.67308 14.9836 8.06052 14.5962 8.53846 14.5962ZM8.53846 18.0577C9.0164 18.0577 9.40385 18.4451 9.40385 18.9231V18.9346C9.40385 19.4126 9.0164 19.8 8.53846 19.8C8.06052 19.8 7.67308 19.4126 7.67308 18.9346V18.9231C7.67308 18.4451 8.06052 18.0577 8.53846 18.0577Z" fill="url(#paint0_linear_420_6775)"/>
<defs>
<linearGradient id="paint0_linear_420_6775" x1="0.75" y1="12" x2="23.2517" y2="12" gradientUnits="userSpaceOnUse">
<stop stop-color="#06FEF1"/>
<stop offset="0.166667" stop-color="#05FEEC"/>
<stop offset="0.333333" stop-color="#05FEDE"/>
<stop offset="0.5" stop-color="#04FEC6"/>
<stop offset="0.666667" stop-color="#02FEA6"/>
<stop offset="0.833333" stop-color="#00FE7C"/>
<stop offset="1" stop-color="#00FF66"/>
</linearGradient>
</defs>
</svg>
