<svg width="25" height="24" viewBox="0 0 25 24" fill="none" xmlns="http://www.w3.org/2000/svg">
<path fill-rule="evenodd" clip-rule="evenodd" d="M10.9978 6.2211C12.5936 5.73567 14.3455 6.06422 15.5821 7.05573L10.9978 6.2211ZM16.7546 5.59248C15.0154 4.19834 12.6156 3.769 10.4517 4.42738L10.4514 4.42747C8.52287 5.01495 6.98573 6.40751 6.33538 8.20381C3.60828 8.54225 1.45508 10.7924 1.45508 13.5793C1.45508 16.6064 3.99379 18.9998 7.04958 18.9998V19.0038H18.9276C21.3648 19.0038 23.3301 17.0186 23.3301 14.5793C23.3301 12.1601 21.3955 10.1869 18.9858 10.1561C19.0047 8.41235 18.1906 6.74118 16.7546 5.59248ZM10.9975 6.22119C9.40439 6.70659 8.27634 7.90367 7.96459 9.30137C7.869 9.72997 7.48871 10.0348 7.04958 10.0348C4.96123 10.0348 3.33008 11.6555 3.33008 13.5793C3.33008 15.5042 4.96136 17.1248 7.04958 17.1248V17.1288H18.9276C20.3184 17.1288 21.4551 15.994 21.4551 14.5793C21.4551 13.1656 20.3184 12.0308 18.9286 12.0308H17.9386C17.6542 12.0308 17.3851 11.9017 17.2072 11.6798C17.0293 11.4579 16.9617 11.1673 17.0234 10.8897C17.3325 9.50062 16.8111 8.03853 15.583 7.05645L15.5821 7.05573" fill="url(#paint0_linear_2285_844)"/>
<path d="M11.1426 8.25C10.6895 8.25 10.3223 8.61727 10.3223 9.07031V11.3672H8.02539C7.57234 11.3672 7.20508 11.7345 7.20508 12.1875C7.20508 12.6405 7.57234 13.0078 8.02539 13.0078H10.3223V15.3047C10.3223 15.7577 10.6895 16.125 11.1426 16.125C11.5956 16.125 11.9629 15.7577 11.9629 15.3047V13.0078H14.2598C14.7128 13.0078 15.0801 12.6405 15.0801 12.1875C15.0801 11.7345 14.7128 11.3672 14.2598 11.3672H11.9629V9.07031C11.9629 8.61727 11.5956 8.25 11.1426 8.25Z" fill="url(#paint1_linear_2285_844)"/>
<defs>
<linearGradient id="paint0_linear_2285_844" x1="1.45508" y1="11.5644" x2="23.3317" y2="11.5644" gradientUnits="userSpaceOnUse">
<stop stop-color="#06FEF1"/>
<stop offset="0.166667" stop-color="#05FEEC"/>
<stop offset="0.333333" stop-color="#05FEDE"/>
<stop offset="0.5" stop-color="#04FEC6"/>
<stop offset="0.666667" stop-color="#02FEA6"/>
<stop offset="0.833333" stop-color="#00FE7C"/>
<stop offset="1" stop-color="#00FF66"/>
</linearGradient>
<linearGradient id="paint1_linear_2285_844" x1="7.20508" y1="12.1875" x2="15.0807" y2="12.1875" gradientUnits="userSpaceOnUse">
<stop stop-color="#06FEF1"/>
<stop offset="0.166667" stop-color="#05FEEC"/>
<stop offset="0.333333" stop-color="#05FEDE"/>
<stop offset="0.5" stop-color="#04FEC6"/>
<stop offset="0.666667" stop-color="#02FEA6"/>
<stop offset="0.833333" stop-color="#00FE7C"/>
<stop offset="1" stop-color="#00FF66"/>
</linearGradient>
</defs>
</svg>
