<svg width="25" height="24" viewBox="0 0 25 24" fill="none" xmlns="http://www.w3.org/2000/svg">
<path fill-rule="evenodd" clip-rule="evenodd" d="M17.2088 2.87868C17.7714 2.31607 18.5344 2 19.3301 2C20.1257 2 20.8888 2.31607 21.4514 2.87868C22.014 3.44129 22.3301 4.20435 22.3301 5C22.3301 5.79565 22.014 6.55871 21.4514 7.12132C20.8888 7.68393 20.1257 8 19.3301 8C18.5344 8 17.7714 7.68393 17.2088 7.12132C16.6461 6.55871 16.3301 5.79565 16.3301 5C16.3301 4.20435 16.6461 3.44129 17.2088 2.87868ZM19.3301 4C19.0649 4 18.8105 4.10536 18.623 4.29289C18.4354 4.48043 18.3301 4.73478 18.3301 5C18.3301 5.26522 18.4354 5.51957 18.623 5.70711C18.8105 5.89464 19.0649 6 19.3301 6C19.5953 6 19.8496 5.89464 20.0372 5.70711C20.2247 5.51957 20.3301 5.26522 20.3301 5C20.3301 4.73478 20.2247 4.48043 20.0372 4.29289C19.8496 4.10536 19.5953 4 19.3301 4ZM8.83008 6C8.16704 6 7.53115 6.26339 7.06231 6.73223C6.59347 7.20107 6.33008 7.83696 6.33008 8.5C6.33008 9.16304 6.59347 9.79893 7.06231 10.2678C7.53115 10.7366 8.16704 11 8.83008 11H16.8301C18.0236 11 19.1681 11.4741 20.0121 12.318C20.856 13.1619 21.3301 14.3065 21.3301 15.5C21.3301 16.6935 20.856 17.8381 20.0121 18.682C19.1681 19.5259 18.0236 20 16.8301 20H11.3301C10.7778 20 10.3301 19.5523 10.3301 19C10.3301 18.4477 10.7778 18 11.3301 18H16.8301C17.4931 18 18.129 17.7366 18.5978 17.2678C19.0667 16.7989 19.3301 16.163 19.3301 15.5C19.3301 14.837 19.0667 14.2011 18.5978 13.7322C18.129 13.2634 17.4931 13 16.8301 13H8.83008C7.6366 13 6.49201 12.5259 5.6481 11.682C4.80418 10.8381 4.33008 9.69347 4.33008 8.5C4.33008 7.30653 4.80418 6.16193 5.6481 5.31802C6.49201 4.47411 7.6366 4 8.83008 4H13.3301C13.8824 4 14.3301 4.44772 14.3301 5C14.3301 5.55228 13.8824 6 13.3301 6H8.83008ZM3.20876 16.8787C3.77137 16.3161 4.53443 16 5.33008 16C6.12573 16 6.88879 16.3161 7.4514 16.8787C8.01401 17.4413 8.33008 18.2043 8.33008 19C8.33008 19.7957 8.01401 20.5587 7.4514 21.1213C6.88879 21.6839 6.12573 22 5.33008 22C4.53443 22 3.77137 21.6839 3.20876 21.1213C2.64615 20.5587 2.33008 19.7957 2.33008 19C2.33008 18.2043 2.64615 17.4413 3.20876 16.8787ZM5.33008 18C5.06486 18 4.81051 18.1054 4.62297 18.2929C4.43543 18.4804 4.33008 18.7348 4.33008 19C4.33008 19.2652 4.43543 19.5196 4.62297 19.7071C4.81051 19.8946 5.06486 20 5.33008 20C5.59529 20 5.84965 19.8946 6.03718 19.7071C6.22472 19.5196 6.33008 19.2652 6.33008 19C6.33008 18.7348 6.22472 18.4804 6.03718 18.2929C5.84965 18.1054 5.59529 18 5.33008 18Z" fill="url(#paint0_linear_2285_872)"/>
<defs>
<linearGradient id="paint0_linear_2285_872" x1="2.33008" y1="12" x2="22.3316" y2="12" gradientUnits="userSpaceOnUse">
<stop stop-color="#06FEF1"/>
<stop offset="0.166667" stop-color="#05FEEC"/>
<stop offset="0.333333" stop-color="#05FEDE"/>
<stop offset="0.5" stop-color="#04FEC6"/>
<stop offset="0.666667" stop-color="#02FEA6"/>
<stop offset="0.833333" stop-color="#00FE7C"/>
<stop offset="1" stop-color="#00FF66"/>
</linearGradient>
</defs>
</svg>
