<svg width="24" height="24" viewBox="0 0 24 24" fill="none" xmlns="http://www.w3.org/2000/svg">
<path fill-rule="evenodd" clip-rule="evenodd" d="M13.0978 2.28418C13.4021 2.3808 13.6089 2.66469 13.6089 2.98563V9.1154H18.5187C18.7915 9.1154 19.0416 9.26813 19.1675 9.51156C19.2934 9.755 19.2741 10.0487 19.1174 10.2733L11.596 21.0617C11.4128 21.3245 11.0814 21.4374 10.7772 21.3408C10.4729 21.2442 10.2661 20.9603 10.2661 20.6394V14.5096H5.35625C5.08347 14.5096 4.83337 14.3569 4.7075 14.1134C4.58163 13.87 4.60093 13.5763 4.75755 13.3517L12.279 2.56328C12.4622 2.30052 12.7936 2.18756 13.0978 2.28418ZM6.76223 13.0385H10.9973C11.4012 13.0385 11.7286 13.3678 11.7286 13.774V18.3094L17.1128 10.5865H12.8777C12.4738 10.5865 12.1464 10.2572 12.1464 9.85097V5.31559L6.76223 13.0385Z" fill="#001489"/>
</svg>
