<svg width="24" height="24" viewBox="0 0 24 24" fill="none" xmlns="http://www.w3.org/2000/svg">
<path fill-rule="evenodd" clip-rule="evenodd" d="M6.40911 5.80849C8.30708 4.14149 11.2594 3.1875 15.5064 3.1875H19.2197C19.5816 3.1875 19.875 3.48454 19.875 3.85096V5.72426C19.875 5.73694 19.8746 5.74961 19.8739 5.76227C19.6373 9.93709 18.4994 12.9278 16.5788 14.8732C14.6518 16.825 12.0333 17.6275 9.04369 17.6275H6.40167C6.21401 18.3272 6.07984 19.0676 5.99428 19.8472C5.95432 20.2114 5.63034 20.4738 5.27065 20.4334C4.91097 20.3929 4.65178 20.0649 4.69175 19.7007C4.80127 18.7028 4.98678 17.747 5.26213 16.842C3.75267 14.9781 3.75 13.1747 3.75 12.2808L3.75 12.2789C3.75685 9.8034 4.49511 7.48959 6.40911 5.80849ZM6.84264 16.3006C7.089 15.6893 7.38621 15.1156 7.73843 14.5807C8.70377 13.1146 10.1055 11.9044 12.0848 11.0138C12.4155 10.865 12.5645 10.4729 12.4175 10.138C12.2705 9.8032 11.8832 9.6524 11.5525 9.80122C9.3689 10.7839 7.7641 12.1495 6.64798 13.8446C6.3318 14.3248 6.05672 14.8286 5.81941 15.3538C5.06054 14.1017 5.06054 12.969 5.06055 12.286V12.2817C5.06683 10.0744 5.71625 8.17366 7.26789 6.81083C8.83579 5.43372 11.4275 4.51442 15.5064 4.51442H18.5645V5.70512C18.3362 9.6798 17.263 12.3032 15.6519 13.9351C14.0446 15.5632 11.8063 16.3006 9.04369 16.3006H6.84264Z" fill="url(#paint0_linear_420_6822)"/>
<defs>
<linearGradient id="paint0_linear_420_6822" x1="3.75" y1="11.8125" x2="19.8762" y2="11.8125" gradientUnits="userSpaceOnUse">
<stop stop-color="#06FEF1"/>
<stop offset="0.166667" stop-color="#05FEEC"/>
<stop offset="0.333333" stop-color="#05FEDE"/>
<stop offset="0.5" stop-color="#04FEC6"/>
<stop offset="0.666667" stop-color="#02FEA6"/>
<stop offset="0.833333" stop-color="#00FE7C"/>
<stop offset="1" stop-color="#00FF66"/>
</linearGradient>
</defs>
</svg>
