<svg width="24" height="24" viewBox="0 0 24 24" fill="none" xmlns="http://www.w3.org/2000/svg">
<path fill-rule="evenodd" clip-rule="evenodd" d="M15.6141 3.2074C15.8793 3.47672 15.871 3.9053 15.5956 4.16464L12.3674 7.20452L13.9883 8.73089C14.0163 8.68084 14.0513 8.63346 14.0932 8.59007L18.7663 3.7594C19.0291 3.48778 19.4672 3.47589 19.745 3.73283C20.0228 3.98977 20.0349 4.41825 19.7722 4.68987L15.0991 9.52054C15.0542 9.56698 15.0041 9.60583 14.9506 9.63704L16.5616 11.1541L19.8275 8.07872C20.1029 7.81937 20.5412 7.82746 20.8064 8.09678C21.0716 8.3661 21.0633 8.79467 20.7879 9.05402L17.5597 12.0939L18.7113 13.1783C18.8468 13.306 18.9234 13.482 18.9234 13.666C18.9234 13.85 18.8468 14.026 18.7113 14.1536L16.5831 16.1577C15.963 16.7638 15.2224 17.2462 14.4053 17.5783C13.586 17.9113 12.7054 18.0866 11.8147 18.0949C10.924 18.1031 10.0399 17.944 9.21398 17.6263C8.59756 17.3892 8.02228 17.0671 7.50673 16.671L4.17252 19.8107C3.89711 20.07 3.45884 20.0619 3.19363 19.7926C2.92841 19.5233 2.93668 19.0947 3.21209 18.8354L6.51263 15.7274C6.10617 15.2507 5.77341 14.7195 5.52616 14.1495C5.18579 13.3649 5.01466 12.5232 5.0235 11.6741C5.03235 10.825 5.22097 9.98674 5.57756 9.20868C5.93317 8.43273 6.44833 7.73291 7.09168 7.14918L9.21993 5.14509C9.48803 4.89264 9.91226 4.89264 10.1804 5.14509L11.3693 6.26467L14.6352 3.18934C14.9106 2.92999 15.3489 2.93808 15.6141 3.2074ZM9.70015 6.57259L8.04736 8.12895C8.0441 8.13202 8.04082 8.13505 8.0375 8.13805C7.52659 8.60064 7.12032 9.15312 6.84109 9.76241C6.56189 10.3716 6.41494 11.0261 6.40804 11.6879C6.40115 12.3497 6.53444 13.0067 6.80083 13.6208C7.06726 14.235 7.46184 14.7947 7.96286 15.2665C8.46393 15.7383 9.06136 16.1126 9.72082 16.3663C10.3803 16.62 11.0878 16.7475 11.8016 16.741C12.5154 16.7344 13.22 16.5938 13.8739 16.328C14.5279 16.0623 15.1172 15.6771 15.6082 15.1962C15.6114 15.1931 15.6146 15.19 15.6179 15.1869L17.233 13.666L9.70015 6.57259Z" fill="#001489"/>
</svg>
