<svg width="24" height="24" viewBox="0 0 24 24" fill="none" xmlns="http://www.w3.org/2000/svg">
<path fill-rule="evenodd" clip-rule="evenodd" d="M11.2929 2.29289C11.6834 1.90237 12.3166 1.90237 12.7071 2.29289L21.7071 11.2929C21.9931 11.5789 22.0787 12.009 21.9239 12.3827C21.7691 12.7564 21.4045 13 21 13H20V19C20 19.7957 19.684 20.5587 19.1214 21.1213C18.5587 21.6839 17.7957 22 17 22H7.00003C6.20438 22 5.44132 21.6839 4.87871 21.1213C4.3161 20.5587 4.00003 19.7957 4.00003 19V13H3.00003C2.59557 13 2.23093 12.7564 2.07615 12.3827C1.92137 12.009 2.00692 11.5789 2.29292 11.2929L11.2929 2.29289ZM5.35094 11.0633C5.73013 11.2054 6.00003 11.5712 6.00003 12V19C6.00003 19.2652 6.10539 19.5196 6.29292 19.7071C6.48046 19.8946 6.73481 20 7.00003 20H17C17.2652 20 17.5196 19.8946 17.7071 19.7071C17.8947 19.5196 18 19.2652 18 19V12C18 11.5712 18.2699 11.2054 18.6491 11.0633L12 4.41421L5.35094 11.0633Z" fill="#001489"/>
<path fill-rule="evenodd" clip-rule="evenodd" d="M13.807 9.47565C13.9396 9.60635 13.9355 9.81433 13.7978 9.94019L12.1837 11.4154L12.9942 12.1562C13.0081 12.1319 13.0256 12.1089 13.0466 12.0878L15.3831 9.74353C15.5145 9.61172 15.7336 9.60595 15.8725 9.73064C16.0114 9.85533 16.0175 10.0633 15.8861 10.1951L13.5495 12.5394C13.5271 12.5619 13.5021 12.5808 13.4753 12.5959L14.2808 13.3321L15.9137 11.8397C16.0514 11.7138 16.2706 11.7177 16.4032 11.8484C16.5358 11.9791 16.5317 12.1871 16.394 12.313L14.7798 13.7882L15.3557 14.3145C15.4234 14.3764 15.4617 14.4619 15.4617 14.5511C15.4617 14.6404 15.4234 14.7259 15.3557 14.7878L14.2915 15.7604C13.9815 16.0545 13.6112 16.2886 13.2026 16.4498C12.793 16.6113 12.3527 16.6965 11.9073 16.7005C11.462 16.7044 11.02 16.6272 10.607 16.4731C10.2988 16.358 10.0111 16.2017 9.75336 16.0094L8.08626 17.5331C7.94855 17.659 7.72942 17.655 7.59681 17.5243C7.46421 17.3936 7.46834 17.1857 7.60605 17.0598L9.25631 15.5515C9.05308 15.3202 8.88671 15.0624 8.76308 14.7858C8.59289 14.405 8.50733 13.9966 8.51175 13.5845C8.51617 13.1724 8.61049 12.7656 8.78878 12.388C8.96659 12.0115 9.22417 11.6719 9.54584 11.3886L10.61 10.416C10.744 10.2935 10.9561 10.2935 11.0902 10.416L11.6847 10.9593L13.3176 9.46689C13.4553 9.34103 13.6744 9.34495 13.807 9.47565ZM10.8501 11.1088L10.0237 11.864C10.0221 11.8655 10.0204 11.867 10.0187 11.8685C9.7633 12.093 9.56016 12.3611 9.42054 12.6568C9.28094 12.9524 9.20747 13.27 9.20402 13.5912C9.20058 13.9123 9.26722 14.2312 9.40042 14.5292C9.53363 14.8273 9.73092 15.0989 9.98143 15.3278C10.232 15.5568 10.5307 15.7385 10.8604 15.8616C11.1902 15.9847 11.5439 16.0466 11.9008 16.0434C12.2577 16.0402 12.61 15.972 12.937 15.843C13.2639 15.714 13.5586 15.5271 13.8041 15.2937C13.8057 15.2922 13.8073 15.2907 13.8089 15.2892L14.6165 14.5511L10.8501 11.1088Z" fill="#001489" stroke="#001489" stroke-width="0.25" stroke-linecap="round" stroke-linejoin="round"/>
</svg>
