<svg width="24" height="24" viewBox="0 0 24 24" fill="none" xmlns="http://www.w3.org/2000/svg">
<path fill-rule="evenodd" clip-rule="evenodd" d="M12.594 2.08619C12.8083 1.99093 13.0493 1.97404 13.2748 2.03848L20.2748 4.03848C20.7041 4.16113 21.0001 4.55352 21.0001 5V18C21.0001 18.4 20.7617 18.7616 20.394 18.9191L13.394 21.9191C13.1689 22.0156 12.9162 22.0261 12.6839 21.9487L3.68386 18.9487C3.21858 18.7936 2.93444 18.3239 3.013 17.8398C3.09157 17.3557 3.50963 17 4.00009 17H12.0001V7.47703L9.00009 8.67703V13C9.00009 13.3788 8.78609 13.725 8.4473 13.8944L4.4473 15.8944C4.13732 16.0494 3.76918 16.0329 3.47436 15.8507C3.17954 15.6684 3.00009 15.3466 3.00009 15V7C3.00009 6.60481 3.23282 6.24669 3.59395 6.08619L12.594 2.08619ZM13.0745 4.06126L5.00009 7.64987V13.382L7.00009 12.382V8C7.00009 7.5911 7.24904 7.22339 7.6287 7.07152L12.6287 5.07152C12.9368 4.94829 13.2859 4.9859 13.5607 5.17193C13.8355 5.35796 14.0001 5.66818 14.0001 6V18C14.0001 18.5523 13.5524 19 13.0001 19H10.1624L12.9556 19.9311L19.0001 17.3406V5.7543L13.0745 4.06126Z" fill="url(#paint0_linear_420_6961)"/>
<defs>
<linearGradient id="paint0_linear_420_6961" x1="3" y1="12" x2="21.0015" y2="12" gradientUnits="userSpaceOnUse">
<stop stop-color="#06FEF1"/>
<stop offset="0.166667" stop-color="#05FEEC"/>
<stop offset="0.333333" stop-color="#05FEDE"/>
<stop offset="0.5" stop-color="#04FEC6"/>
<stop offset="0.666667" stop-color="#02FEA6"/>
<stop offset="0.833333" stop-color="#00FE7C"/>
<stop offset="1" stop-color="#00FF66"/>
</linearGradient>
</defs>
</svg>
