<svg width="24" height="24" viewBox="0 0 24 24" fill="none" xmlns="http://www.w3.org/2000/svg">
<path fill-rule="evenodd" clip-rule="evenodd" d="M9.87868 1.87868C10.4413 1.31607 11.2044 1 12 1C12.7956 1 13.5587 1.31607 14.1213 1.87868C14.6839 2.44129 15 3.20435 15 4C15 4.79565 14.6839 5.55871 14.1213 6.12132C13.8019 6.44073 13.4179 6.68067 13 6.82843V9.17157C13.4179 9.31933 13.8019 9.55928 14.1213 9.87868C14.4407 10.1981 14.6807 10.5821 14.8284 11H17.1716C17.3193 10.5821 17.5593 10.1981 17.8787 9.87868C18.4413 9.31607 19.2043 9 20 9C20.7957 9 21.5587 9.31607 22.1213 9.87868C22.6839 10.4413 23 11.2043 23 12C23 12.7957 22.6839 13.5587 22.1213 14.1213C21.5587 14.6839 20.7957 15 20 15C19.2043 15 18.4413 14.6839 17.8787 14.1213C17.5593 13.8019 17.3193 13.4179 17.1716 13H14.8284C14.6807 13.4179 14.4407 13.8019 14.1213 14.1213C13.8019 14.4407 13.4179 14.6807 13 14.8284V17.1716C13.4179 17.3193 13.8019 17.5593 14.1213 17.8787C14.6839 18.4413 15 19.2043 15 20C15 20.7957 14.6839 21.5587 14.1213 22.1213C13.5587 22.6839 12.7957 23 12 23C11.2043 23 10.4413 22.6839 9.87868 22.1213C9.31607 21.5587 9 20.7957 9 20C9 19.2043 9.31607 18.4413 9.87868 17.8787C10.1981 17.5593 10.5821 17.3193 11 17.1716V14.8284C10.5821 14.6807 10.1981 14.4407 9.87868 14.1213C9.55928 13.8019 9.31933 13.4179 9.17157 13H6.82843C6.68067 13.4179 6.44073 13.8019 6.12132 14.1213C5.55871 14.6839 4.79565 15 4 15C3.20435 15 2.44129 14.6839 1.87868 14.1213C1.31607 13.5587 1 12.7956 1 12C1 11.2044 1.31607 10.4413 1.87868 9.87868C2.44129 9.31607 3.20435 9 4 9C4.79565 9 5.55871 9.31607 6.12132 9.87868C6.44073 10.1981 6.68067 10.5821 6.82843 11H9.17157C9.31933 10.5821 9.55928 10.1981 9.87868 9.87868C10.1981 9.55928 10.5821 9.31933 11 9.17157V6.82843C10.5821 6.68067 10.1981 6.44073 9.87868 6.12132C9.31607 5.55871 9 4.79565 9 4C9 3.20435 9.31607 2.44129 9.87868 1.87868ZM12 3C11.7348 3 11.4804 3.10536 11.2929 3.29289C11.1054 3.48043 11 3.73478 11 4C11 4.26522 11.1054 4.51957 11.2929 4.70711C11.4804 4.89464 11.7348 5 12 5C12.2652 5 12.5196 4.89464 12.7071 4.70711C12.8946 4.51957 13 4.26522 13 4C13 3.73478 12.8946 3.48043 12.7071 3.29289C12.5196 3.10536 12.2652 3 12 3ZM4 11C3.73478 11 3.48043 11.1054 3.29289 11.2929C3.10536 11.4804 3 11.7348 3 12C3 12.2652 3.10536 12.5196 3.29289 12.7071C3.48043 12.8946 3.73478 13 4 13C4.26522 13 4.51957 12.8946 4.70711 12.7071C4.89464 12.5196 5 12.2652 5 12C5 11.7348 4.89464 11.4804 4.70711 11.2929C4.51957 11.1054 4.26522 11 4 11ZM12 11C11.7348 11 11.4804 11.1054 11.2929 11.2929C11.1054 11.4804 11 11.7348 11 12C11 12.2652 11.1054 12.5196 11.2929 12.7071C11.4804 12.8946 11.7348 13 12 13C12.2652 13 12.5196 12.8946 12.7071 12.7071C12.8946 12.5196 13 12.2652 13 12C13 11.7348 12.8946 11.4804 12.7071 11.2929C12.5196 11.1054 12.2652 11 12 11ZM20 11C19.7348 11 19.4804 11.1054 19.2929 11.2929C19.1054 11.4804 19 11.7348 19 12C19 12.2652 19.1054 12.5196 19.2929 12.7071C19.4804 12.8946 19.7348 13 20 13C20.2652 13 20.5196 12.8946 20.7071 12.7071C20.8946 12.5196 21 12.2652 21 12C21 11.7348 20.8946 11.4804 20.7071 11.2929C20.5196 11.1054 20.2652 11 20 11ZM12 19C11.7348 19 11.4804 19.1054 11.2929 19.2929C11.1054 19.4804 11 19.7348 11 20C11 20.2652 11.1054 20.5196 11.2929 20.7071C11.4804 20.8946 11.7348 21 12 21C12.2652 21 12.5196 20.8946 12.7071 20.7071C12.8946 20.5196 13 20.2652 13 20C13 19.7348 12.8946 19.4804 12.7071 19.2929C12.5196 19.1054 12.2652 19 12 19Z" fill="url(#paint0_linear_420_6625)"/>
<defs>
<linearGradient id="paint0_linear_420_6625" x1="1" y1="12" x2="23.0017" y2="12" gradientUnits="userSpaceOnUse">
<stop stop-color="#06FEF1"/>
<stop offset="0.166667" stop-color="#05FEEC"/>
<stop offset="0.333333" stop-color="#05FEDE"/>
<stop offset="0.5" stop-color="#04FEC6"/>
<stop offset="0.666667" stop-color="#02FEA6"/>
<stop offset="0.833333" stop-color="#00FE7C"/>
<stop offset="1" stop-color="#00FF66"/>
</linearGradient>
</defs>
</svg>
