<svg width="24" height="24" viewBox="0 0 24 24" fill="none" xmlns="http://www.w3.org/2000/svg">
<path fill-rule="evenodd" clip-rule="evenodd" d="M9.98442 5.00011H5.7802C5.33434 5.00012 4.90124 5.14911 4.54975 5.42342C4.19827 5.69772 3.94851 6.08161 3.84017 6.51411L2.34017 12.5141C2.26641 12.8089 2.26065 13.117 2.32358 13.4143C2.38654 13.7117 2.51647 13.9909 2.7035 14.2305C2.89053 14.4702 3.12974 14.6641 3.40295 14.7974C3.67615 14.9308 3.97616 15.0001 4.28017 15.0001H8.98691C8.99663 15.0002 9.00632 15.0002 9.01598 15.0001H11.0002V17.0001H7.00019C6.44791 17.0001 6.00019 17.4478 6.00019 18.0001C6.00019 18.5524 6.44791 19.0001 7.00019 19.0001H17.0002C17.5525 19.0001 18.0002 18.5524 18.0002 18.0001C18.0002 17.4478 17.5525 17.0001 17.0002 17.0001H13.0002V15.0001H14.9844C14.9941 15.0002 15.0038 15.0002 15.0135 15.0001H19.7202C20.0242 15.0001 20.3242 14.9308 20.5974 14.7974C20.8707 14.6641 21.1099 14.4702 21.2969 14.2305C21.4839 13.9909 21.6139 13.7117 21.6768 13.4143C21.7397 13.117 21.7341 12.8093 21.6603 12.5146C21.6603 12.5144 21.6604 12.5147 21.6603 12.5146L20.1603 6.51457C20.052 6.08207 19.8021 5.69772 19.4506 5.42342C19.0991 5.14911 18.6661 5.00012 18.2202 5.00011H14.016C14.0063 4.99997 13.9966 4.99996 13.9869 5.00011H10.0135C10.0038 4.99996 9.99408 4.99997 9.98442 5.00011ZM13.1174 7.00011H10.883L10.633 9.00011H13.3674L13.1174 7.00011ZM15.133 7.00011L15.383 9.00011H18.7202L18.2202 7.00011H15.133ZM19.2202 11.0001H15.633L15.883 13.0001H19.7202L19.2202 11.0001ZM13.8674 13.0001L13.6174 11.0001H10.383L10.133 13.0001H13.8674ZM8.11741 13.0001L8.36741 11.0001H4.78022L4.28034 12.9996L8.11741 13.0001ZM5.28022 9.00011H8.61741L8.86741 7.00011L5.78022 7.00011L5.28022 9.00011Z" fill="#001489"/>
</svg>
