<svg width="24" height="24" viewBox="0 0 24 24" fill="none" xmlns="http://www.w3.org/2000/svg">
<path fill-rule="evenodd" clip-rule="evenodd" d="M7.28081 3.1904C8.73233 2.41355 10.3532 2.00708 11.9995 2.00708C13.6458 2.00708 15.2667 2.41355 16.7182 3.1904C18.1697 3.96725 19.407 5.09046 20.3202 6.46031C21.2333 7.83016 21.7942 9.40428 21.9529 11.0429C22.1117 12.6816 21.8634 14.3341 21.2301 15.8537C21.0176 16.3635 20.4321 16.6046 19.9223 16.3921C19.4126 16.1797 19.1715 15.5942 19.384 15.0844C19.8906 13.8687 20.0892 12.5467 19.9622 11.2358C19.8353 9.92484 19.3866 8.66554 18.656 7.56966C17.9255 6.47378 16.9357 5.57522 15.7745 4.95374C14.6133 4.33225 13.3166 4.00708 11.9995 4.00708C10.6825 4.00708 9.38576 4.33225 8.22455 4.95374C7.06334 5.57522 6.07353 6.47378 5.34299 7.56966C4.61244 8.66554 4.16377 9.92484 4.03678 11.2358C3.9098 12.5467 4.10844 13.8687 4.61507 15.0844C4.82752 15.5942 4.58647 16.1797 4.07668 16.3921C3.56689 16.6046 2.9814 16.3635 2.76896 15.8537C2.13567 14.3341 1.88737 12.6816 2.0461 11.0429C2.20483 9.40428 2.76568 7.83016 3.67886 6.46031C4.59204 5.09046 5.8293 3.96725 7.28081 3.1904ZM9.16957 6.71016C10.0405 6.24398 11.0131 6.00006 12.001 6.00006C12.9888 6.00006 13.9614 6.24398 14.8324 6.71016C15.7033 7.17633 16.4457 7.85035 16.9936 8.67236C17.5415 9.49437 17.878 10.4389 17.9731 11.4222C18.0682 12.4055 17.9191 13.3971 17.539 14.3089C17.3265 14.8186 16.7409 15.0596 16.2312 14.8471C15.7214 14.6345 15.4805 14.049 15.693 13.5393C15.9464 12.9314 16.0458 12.2704 15.9824 11.6148C15.919 10.9593 15.6947 10.3296 15.3294 9.78159C14.9641 9.23359 14.4692 8.78424 13.8886 8.47346C13.3079 8.16267 12.6596 8.00006 12.001 8.00006C11.3424 8.00006 10.694 8.16267 10.1134 8.47346C9.53273 8.78424 9.03781 9.23358 8.67255 9.78159C8.3073 10.3296 8.083 10.9593 8.01957 11.6148C7.95615 12.2704 8.05556 12.9314 8.30898 13.5393C8.5215 14.049 8.28054 14.6345 7.77078 14.8471C7.26102 15.0596 6.6755 14.8186 6.46298 14.3089C6.08285 13.3971 5.93373 12.4055 6.02887 11.4222C6.12401 10.4389 6.46045 9.49437 7.00834 8.67236C7.55623 7.85035 8.29861 7.17633 9.16957 6.71016ZM10.5858 10.5858C10.9609 10.2108 11.4696 10.0001 12 10.0001C12.5304 10.0001 13.0391 10.2108 13.4142 10.5858C13.7893 10.9609 14 11.4696 14 12.0001C14 12.4904 13.8199 12.9622 13.4964 13.327L15.9487 20.6838C16.1233 21.2078 15.8402 21.7741 15.3162 21.9487C14.7923 22.1234 14.226 21.8402 14.0513 21.3163L13.6126 20.0001H10.3874L9.94868 21.3163C9.77404 21.8402 9.20772 22.1234 8.68377 21.9487C8.15983 21.7741 7.87667 21.2078 8.05132 20.6838L10.5036 13.327C10.1801 12.9622 10 12.4904 10 12.0001C10 11.4696 10.2107 10.9609 10.5858 10.5858ZM12 15.1623L11.0541 18.0001H12.9459L12 15.1623Z" fill="#001489"/>
</svg>
