<svg width="18" height="20" viewBox="0 0 18 20" fill="none" xmlns="http://www.w3.org/2000/svg">
<path fill-rule="evenodd" clip-rule="evenodd" d="M5.58579 0.585786C5.96086 0.210714 6.46957 0 7 0H11C11.5304 0 12.0391 0.210714 12.4142 0.585786C12.7893 0.960859 13 1.46957 13 2V4H15.9883C15.9953 3.99993 16.0024 3.99993 16.0095 4H17C17.5523 4 18 4.44772 18 5C18 5.55228 17.5523 6 17 6H16.9201L15.9997 17.0458C15.9878 17.8249 15.6731 18.5695 15.1213 19.1213C14.5587 19.6839 13.7957 20 13 20H5C4.20435 20 3.44129 19.6839 2.87868 19.1213C2.32687 18.5695 2.01223 17.8249 2.00035 17.0458L1.07987 6H1C0.447715 6 0 5.55228 0 5C0 4.44772 0.447715 4 1 4H1.99054C1.9976 3.99993 2.00466 3.99993 2.0117 4H5V2C5 1.46957 5.21071 0.960859 5.58579 0.585786ZM3.0868 6L3.99655 16.917C3.99885 16.9446 4 16.9723 4 17C4 17.2652 4.10536 17.5196 4.29289 17.7071C4.48043 17.8946 4.73478 18 5 18H13C13.2652 18 13.5196 17.8946 13.7071 17.7071C13.8946 17.5196 14 17.2652 14 17C14 16.9723 14.0012 16.9446 14.0035 16.917L14.9132 6H3.0868ZM11 4H7V2H11V4ZM7 8C7.55228 8 8 8.44772 8 9V15C8 15.5523 7.55228 16 7 16C6.44772 16 6 15.5523 6 15V9C6 8.44772 6.44772 8 7 8ZM11 8C11.5523 8 12 8.44772 12 9V15C12 15.5523 11.5523 16 11 16C10.4477 16 10 15.5523 10 15V9C10 8.44772 10.4477 8 11 8Z" fill="#B8BFEA"/>
</svg>
