<svg width="24" height="24" viewBox="0 0 24 24" fill="none" xmlns="http://www.w3.org/2000/svg">
<path fill-rule="evenodd" clip-rule="evenodd" d="M5.61877 9.70707C5.53467 9.70706 5.45324 9.73656 5.38867 9.79044C5.3241 9.84431 5.28049 9.91912 5.26543 10.0018C5.26543 10.0019 5.26543 10.0018 5.26543 10.0018L3.24998 21.0825C3.24056 21.1343 3.24263 21.1875 3.25604 21.2384C3.26945 21.2892 3.29387 21.3365 3.32758 21.3769C3.36128 21.4173 3.40345 21.4498 3.4511 21.4721C3.49876 21.4944 3.55072 21.5059 3.60332 21.5059H20.3525C20.4051 21.5059 20.4572 21.4944 20.5048 21.4721C20.5525 21.4498 20.5947 21.4173 20.6284 21.3769C20.6621 21.3365 20.6865 21.2892 20.6999 21.2384C20.7133 21.1875 20.7154 21.1343 20.706 21.0825L18.6905 10.0019C18.6905 10.0019 18.6905 10.0019 18.6905 10.0019C18.6755 9.91916 18.6318 9.84431 18.5673 9.79044C18.5027 9.73656 18.4213 9.70706 18.3372 9.70707H5.61877ZM5.6189 7.96289C5.12638 7.96285 4.64945 8.13565 4.27127 8.45119C3.89305 8.76676 3.63758 9.20506 3.54941 9.68968L1.53397 20.7703C1.53396 20.7704 1.53397 20.7703 1.53397 20.7703C1.47882 21.0735 1.49094 21.3851 1.56948 21.683C1.64802 21.9809 1.79107 22.258 1.9885 22.4945C2.18593 22.7311 2.43292 22.9214 2.71201 23.0519C2.99106 23.1825 3.29538 23.2501 3.60345 23.2501C3.60341 23.2501 3.6035 23.2501 3.60345 23.2501H20.3524M5.6189 7.96289C5.61886 7.96289 5.61895 7.96289 5.6189 7.96289H18.3369C18.3369 7.96289 18.337 7.96289 18.3369 7.96289C18.8294 7.96285 19.3065 8.13566 19.6847 8.45119C20.0629 8.76676 20.3184 9.20506 20.4065 9.68968L22.422 20.7703C22.422 20.7703 22.422 20.7704 22.422 20.7703C22.4771 21.0735 22.465 21.3851 22.3865 21.683C22.3079 21.9809 22.1649 22.258 21.9674 22.4945C21.77 22.7311 21.523 22.9214 21.2439 23.0519C20.9649 23.1825 20.6604 23.2501 20.3524 23.2501" fill="url(#paint0_linear_420_6616)"/>
<path fill-rule="evenodd" clip-rule="evenodd" d="M11.9649 7.72671C13.4099 7.72671 14.5812 6.55537 14.5812 5.11045C14.5812 3.66552 13.4099 2.49418 11.9649 2.49418C10.52 2.49418 9.34867 3.66552 9.34867 5.11045C9.34867 6.55537 10.52 7.72671 11.9649 7.72671ZM11.9649 9.47089C14.3731 9.47089 16.3254 7.51865 16.3254 5.11045C16.3254 2.70224 14.3731 0.75 11.9649 0.75C9.55673 0.75 7.60449 2.70224 7.60449 5.11045C7.60449 7.51865 9.55673 9.47089 11.9649 9.47089Z" fill="url(#paint1_linear_420_6616)"/>
<defs>
<linearGradient id="paint0_linear_420_6616" x1="1.5" y1="15.6065" x2="22.4575" y2="15.6065" gradientUnits="userSpaceOnUse">
<stop stop-color="#06FEF1"/>
<stop offset="0.166667" stop-color="#05FEEC"/>
<stop offset="0.333333" stop-color="#05FEDE"/>
<stop offset="0.5" stop-color="#04FEC6"/>
<stop offset="0.666667" stop-color="#02FEA6"/>
<stop offset="0.833333" stop-color="#00FE7C"/>
<stop offset="1" stop-color="#00FF66"/>
</linearGradient>
<linearGradient id="paint1_linear_420_6616" x1="7.60449" y1="5.11045" x2="16.326" y2="5.11045" gradientUnits="userSpaceOnUse">
<stop stop-color="#06FEF1"/>
<stop offset="0.166667" stop-color="#05FEEC"/>
<stop offset="0.333333" stop-color="#05FEDE"/>
<stop offset="0.5" stop-color="#04FEC6"/>
<stop offset="0.666667" stop-color="#02FEA6"/>
<stop offset="0.833333" stop-color="#00FE7C"/>
<stop offset="1" stop-color="#00FF66"/>
</linearGradient>
</defs>
</svg>
