<svg width="24" height="24" viewBox="0 0 24 24" fill="none" xmlns="http://www.w3.org/2000/svg">
<path fill-rule="evenodd" clip-rule="evenodd" d="M8.58579 2.58579C8.96086 2.21071 9.46957 2 10 2H14C14.5304 2 15.0391 2.21071 15.4142 2.58579C15.7893 2.96086 16 3.46957 16 4V6H18.9883C18.9953 5.99993 19.0024 5.99993 19.0095 6H20C20.5523 6 21 6.44772 21 7C21 7.55228 20.5523 8 20 8H19.9201L18.9997 19.0458C18.9878 19.8249 18.6731 20.5695 18.1213 21.1213C17.5587 21.6839 16.7957 22 16 22H8C7.20435 22 6.44129 21.6839 5.87868 21.1213C5.32687 20.5695 5.01223 19.8249 5.00035 19.0458L4.07987 8H4C3.44772 8 3 7.55228 3 7C3 6.44772 3.44772 6 4 6H4.99054C4.9976 5.99993 5.00466 5.99993 5.0117 6H8V4C8 3.46957 8.21071 2.96086 8.58579 2.58579ZM6.0868 8L6.99655 18.917C6.99885 18.9446 7 18.9723 7 19C7 19.2652 7.10536 19.5196 7.29289 19.7071C7.48043 19.8946 7.73478 20 8 20H16C16.2652 20 16.5196 19.8946 16.7071 19.7071C16.8946 19.5196 17 19.2652 17 19C17 18.9723 17.0012 18.9446 17.0035 18.917L17.9132 8H6.0868ZM14 6H10V4H14V6Z" fill="url(#paint0_linear_420_6727)"/>
<path fill-rule="evenodd" clip-rule="evenodd" d="M11.3226 9.40042C11.5607 9.29132 11.8212 9.24036 12.0827 9.2515C12.3441 9.26264 12.5995 9.33559 12.8274 9.46465C13.0553 9.59372 13.2495 9.77535 13.3932 9.99488C13.4004 10.0058 13.4072 10.0169 13.4138 10.0281L14.619 12.0967C14.8015 11.9357 15.0588 11.8665 15.3114 11.9348C15.7113 12.0429 15.9478 12.4547 15.8397 12.8545L15.5109 14.0706C15.4031 14.4691 14.9935 14.7056 14.5944 14.5997L13.3674 14.2739C12.967 14.1676 12.7286 13.7569 12.8349 13.3565C12.9015 13.1057 13.0876 12.9184 13.3158 12.8397L12.1318 10.8075C12.1203 10.7926 12.1056 10.7797 12.0883 10.7699C12.0674 10.7581 12.0436 10.7512 12.0188 10.7501C11.994 10.7491 11.9696 10.7539 11.9476 10.764C11.9337 10.7704 11.9212 10.7786 11.9104 10.7883L11.6779 11.1688C11.4619 11.5223 11.0003 11.6337 10.6468 11.4178C10.2934 11.2018 10.1819 10.7402 10.3979 10.3867L10.6633 9.95232C10.6786 9.92728 10.6954 9.90315 10.7135 9.88007C10.8756 9.67379 11.0845 9.50953 11.3226 9.40042ZM9.92686 11.6081C10.3259 11.5021 10.7356 11.7386 10.8433 12.1372L11.1721 13.3532C11.2802 13.7531 11.0437 14.1649 10.6439 14.273C10.3913 14.3413 10.1339 14.2721 9.9514 14.111L8.76031 16.1554C8.75337 16.1721 8.74993 16.1897 8.75 16.2073C8.75009 16.2285 8.75528 16.2496 8.76549 16.269C8.77572 16.2885 8.79087 16.3059 8.81021 16.3195C8.82282 16.3283 8.83691 16.3352 8.85196 16.3399L9.30268 16.3493C9.7168 16.3579 10.0455 16.7006 10.0369 17.1147C10.0282 17.5289 9.68554 17.8576 9.27141 17.849L8.75894 17.8383C8.72991 17.8377 8.70095 17.8354 8.67218 17.8314C8.41294 17.7957 8.1656 17.699 7.95087 17.5489C7.7361 17.3988 7.56002 17.1995 7.43786 16.9672C7.31568 16.7348 7.25115 16.4765 7.25002 16.2138C7.24888 15.951 7.31118 15.6921 7.43136 15.4587C7.43732 15.4472 7.44357 15.4358 7.45012 15.4245L8.64826 13.3681C8.42008 13.2893 8.23398 13.1021 8.16738 12.8513C8.06108 12.4509 8.29945 12.0402 8.69979 11.9339L9.92686 11.6081ZM15.323 14.7849C15.6852 14.5839 16.1417 14.7145 16.3427 15.0767L16.5897 15.5218C16.604 15.5475 16.6168 15.5741 16.6279 15.6013C16.7276 15.8444 16.7672 16.1078 16.7432 16.3695C16.7193 16.6312 16.6325 16.8831 16.4907 17.104C16.3488 17.3248 16.1562 17.5082 15.9293 17.6393C15.7024 17.7703 15.4476 17.8455 15.1862 17.8588C15.1735 17.8595 15.1607 17.8598 15.148 17.8598H12.7408C12.7852 18.0942 12.7172 18.3457 12.5367 18.5279C12.2451 18.8221 11.7702 18.8243 11.476 18.5327L10.5777 17.6425C10.4356 17.5017 10.3556 17.3099 10.3556 17.1098C10.3556 16.9097 10.4356 16.7179 10.5777 16.5771L11.476 15.6869C11.7702 15.3953 12.2451 15.3975 12.5367 15.6917C12.7172 15.8739 12.7852 16.1254 12.7408 16.3598H15.1209C15.1416 16.3572 15.1614 16.3506 15.1789 16.3404C15.1996 16.3285 15.2164 16.3122 15.2285 16.2935C15.2405 16.2748 15.2475 16.254 15.2494 16.2328C15.2506 16.2199 15.2499 16.2068 15.2473 16.194L15.0312 15.8046C14.8302 15.4424 14.9608 14.9859 15.323 14.7849Z" fill="url(#paint1_linear_420_6727)"/>
<defs>
<linearGradient id="paint0_linear_420_6727" x1="3" y1="12" x2="21.0014" y2="12" gradientUnits="userSpaceOnUse">
<stop stop-color="#06FEF1"/>
<stop offset="0.166667" stop-color="#05FEEC"/>
<stop offset="0.333333" stop-color="#05FEDE"/>
<stop offset="0.5" stop-color="#04FEC6"/>
<stop offset="0.666667" stop-color="#02FEA6"/>
<stop offset="0.833333" stop-color="#00FE7C"/>
<stop offset="1" stop-color="#00FF66"/>
</linearGradient>
<linearGradient id="paint1_linear_420_6727" x1="7.25" y1="14" x2="16.7507" y2="14" gradientUnits="userSpaceOnUse">
<stop stop-color="#06FEF1"/>
<stop offset="0.166667" stop-color="#05FEEC"/>
<stop offset="0.333333" stop-color="#05FEDE"/>
<stop offset="0.5" stop-color="#04FEC6"/>
<stop offset="0.666667" stop-color="#02FEA6"/>
<stop offset="0.833333" stop-color="#00FE7C"/>
<stop offset="1" stop-color="#00FF66"/>
</linearGradient>
</defs>
</svg>
