<svg width="24" height="24" viewBox="0 0 24 24" fill="none" xmlns="http://www.w3.org/2000/svg">
<path fill-rule="evenodd" clip-rule="evenodd" d="M11.2387 2.196C11.4726 2.06929 11.7345 2.00293 12.0006 2.00293C12.2667 2.00293 12.5286 2.06929 12.7626 2.196C12.9965 2.32272 13.1952 2.50578 13.3406 2.72863L13.3419 2.73054L15.4369 5.95754C15.4465 5.97233 15.4557 5.98736 15.4645 6.00264C15.934 6.81708 16.1018 7.77082 15.9385 8.69661C15.7752 9.62241 15.2911 10.4612 14.5713 11.0658C13.851 11.6703 12.9405 12.0019 12.0001 12.0019C11.0598 12.0019 10.1495 11.6706 9.42923 11.066C8.71013 10.462 8.22426 9.62353 8.06057 8.697C7.89703 7.77135 8.06446 6.81766 8.53351 6.00307C8.5425 5.98746 8.55191 5.9721 8.56173 5.957L10.6606 2.72863C10.806 2.50579 11.0047 2.32272 11.2387 2.196ZM12.0004 4.33715L10.2547 7.0222C10.0292 7.42511 9.94965 7.89385 10.0301 8.34905C10.1117 8.81135 10.3544 9.23126 10.7153 9.53433C11.0753 9.83637 11.5302 10.0019 12.0001 10.0019C12.4702 10.0019 12.9252 9.83629 13.2852 9.5341C13.6452 9.23165 13.8872 8.81217 13.9689 8.34916C14.0492 7.89384 13.9694 7.42501 13.7435 7.02217L12.0004 4.33715ZM5.23867 12.196C5.47265 12.0693 5.73453 12.0029 6.00062 12.0029C6.2667 12.0029 6.52859 12.0693 6.76256 12.196C6.99654 12.3227 7.19522 12.5058 7.34062 12.7286L7.34187 12.7305L9.43686 15.9575C9.44646 15.9723 9.45567 15.9874 9.46447 16.0026C9.93398 16.8171 10.1018 17.7708 9.93847 18.6966C9.77515 19.6224 9.29113 20.4612 8.57129 21.0658C7.85101 21.6703 6.94046 22.0019 6.00012 22.0019C5.05978 22.0019 4.14951 21.6706 3.42924 21.066C2.71013 20.462 2.22426 19.6235 2.06057 18.697C1.89703 17.7713 2.06446 16.8177 2.53352 16.0031C2.5425 15.9875 2.55191 15.9721 2.56173 15.957L4.66062 12.7286C4.80602 12.5058 5.0047 12.3227 5.23867 12.196ZM6.00038 14.3372L4.25472 17.0222C4.02918 17.4251 3.94965 17.8939 4.03007 18.349C4.11172 18.8112 4.35432 19.231 4.715 19.5341C5.07504 19.8363 5.53006 20.0019 6.00012 20.0019C6.47017 20.0019 6.92519 19.8363 7.28524 19.5341C7.64518 19.2317 7.88721 18.8122 7.96888 18.3492C8.0492 17.8938 7.96942 17.425 7.74352 17.0222L6.00038 14.3372ZM17.2387 12.196C17.4726 12.0693 17.7345 12.0029 18.0006 12.0029C18.2667 12.0029 18.5286 12.0693 18.7626 12.196C18.9965 12.3227 19.1952 12.5058 19.3406 12.7286L19.3419 12.7305L21.4369 15.9575C21.4465 15.9723 21.4557 15.9874 21.4645 16.0026C21.934 16.8171 22.1018 17.7708 21.9385 18.6966C21.7752 19.6224 21.2911 20.4612 20.5713 21.0658C19.851 21.6703 18.9405 22.0019 18.0001 22.0019C17.0733 22.0019 16.1756 21.68 15.4603 21.0919C15.4494 21.0834 15.4386 21.0747 15.428 21.0658C14.7082 20.4612 14.2241 19.6227 14.0606 18.697C13.897 17.7713 14.0645 16.8177 14.5335 16.0031C14.5425 15.9875 14.5519 15.9721 14.5617 15.957L16.6597 12.73L16.6606 12.7286C16.806 12.5058 17.0047 12.3227 17.2387 12.196ZM18.0004 14.3372L16.2547 17.0222C16.0292 17.4251 15.9496 17.8939 16.0301 18.349C16.1102 18.8028 16.3443 19.2147 16.6923 19.5156C16.7 19.5217 16.7075 19.5278 16.715 19.5341C17.075 19.8363 17.5301 20.0019 18.0001 20.0019C18.4702 20.0019 18.9252 19.8363 19.2852 19.5341C19.6452 19.2317 19.8872 18.8122 19.9689 18.3492C20.0492 17.8938 19.9694 17.425 19.7435 17.0222L18.0004 14.3372Z" fill="url(#paint0_linear_420_6694)"/>
<defs>
<linearGradient id="paint0_linear_420_6694" x1="1.99951" y1="12.0024" x2="22.0008" y2="12.0024" gradientUnits="userSpaceOnUse">
<stop stop-color="#06FEF1"/>
<stop offset="0.166667" stop-color="#05FEEC"/>
<stop offset="0.333333" stop-color="#05FEDE"/>
<stop offset="0.5" stop-color="#04FEC6"/>
<stop offset="0.666667" stop-color="#02FEA6"/>
<stop offset="0.833333" stop-color="#00FE7C"/>
<stop offset="1" stop-color="#00FF66"/>
</linearGradient>
</defs>
</svg>
