<svg width="24" height="24" viewBox="0 0 24 24" fill="none" xmlns="http://www.w3.org/2000/svg">
<path fill-rule="evenodd" clip-rule="evenodd" d="M17.7721 7.99966C16.1428 5.63445 13.1619 4.47628 10.2568 5.2212C9.02629 5.53779 7.90511 6.18336 7.01353 7.08868C6.12187 7.99408 5.49349 9.12512 5.19579 10.3605C4.89808 11.5959 4.94228 12.889 5.32364 14.1012C5.705 15.3134 6.40914 16.3989 7.36053 17.2413C8.31193 18.0837 9.4747 18.6512 10.7241 18.883C11.9736 19.1148 13.2625 19.0021 14.4528 18.557C15.643 18.1119 16.6897 17.3512 17.4804 16.3565C18.2712 15.3618 18.7763 14.1706 18.9416 12.9106C19.0134 12.363 19.5155 11.9773 20.0631 12.0491C20.6107 12.1209 20.9964 12.6231 20.9246 13.1707C20.7121 14.7906 20.0627 16.3222 19.046 17.6011C18.0293 18.88 16.6836 19.8581 15.1533 20.4303C13.623 21.0026 11.9657 21.1475 10.3593 20.8494C8.7529 20.5514 7.25792 19.8217 6.03469 18.7386C4.81147 17.6555 3.90615 16.2599 3.41583 14.7014C2.92551 13.1429 2.86868 11.4803 3.25145 9.89195C3.63421 8.3036 4.44212 6.8494 5.58854 5.68532C6.73496 4.52123 8.17664 3.69118 9.75895 3.28417L9.75963 3.28399C13.2427 2.39068 16.8325 3.6344 19 6.304V3.99966C19 3.44737 19.4477 2.99966 20 2.99966C20.5523 2.99966 21 3.44737 21 3.99966V8.99966C21 9.55194 20.5523 9.99966 20 9.99966H19.4557C19.4408 9.99999 19.4259 9.99999 19.4111 9.99966H15C14.4477 9.99966 14 9.55194 14 8.99966C14 8.44737 14.4477 7.99966 15 7.99966H17.7721Z" fill="url(#paint0_linear_420_6697)"/>
<path fill-rule="evenodd" clip-rule="evenodd" d="M11.7697 8.713C11.7699 8.71323 11.77 8.71347 11.7702 8.7137L13.516 11.5362C13.5251 11.551 13.5339 11.566 13.5422 11.5812C14.3677 13.0852 14.0563 15.0006 12.7673 16.1362C11.4604 17.2877 9.53943 17.2875 8.23245 16.1362C6.94344 15.0006 6.63216 13.0853 7.45705 11.5814C7.46548 11.566 7.4743 11.5509 7.48352 11.536L9.23078 8.71294C9.23081 8.7129 9.23084 8.71285 9.23087 8.71281C9.23091 8.71274 9.23096 8.71266 9.231 8.71259C9.34016 8.53616 9.48608 8.3801 9.66357 8.25882L9.66475 8.25802L9.66475 8.25802C10.3829 7.7688 11.3301 8.00162 11.7696 8.71282C11.7697 8.71288 11.7697 8.71294 11.7697 8.713ZM10.5001 10.4624L9.19956 12.5636C8.82794 13.2637 8.99045 14.1385 9.55449 14.6354C10.106 15.1213 10.8942 15.1211 11.4451 14.6356L11.4453 14.6354C12.0094 14.1385 12.1718 13.2637 11.7999 12.5636L10.5001 10.4624Z" fill="url(#paint1_linear_420_6697)"/>
<defs>
<linearGradient id="paint0_linear_420_6697" x1="3.00098" y1="11.9988" x2="21.0014" y2="11.9988" gradientUnits="userSpaceOnUse">
<stop stop-color="#06FEF1"/>
<stop offset="0.166667" stop-color="#05FEEC"/>
<stop offset="0.333333" stop-color="#05FEDE"/>
<stop offset="0.5" stop-color="#04FEC6"/>
<stop offset="0.666667" stop-color="#02FEA6"/>
<stop offset="0.833333" stop-color="#00FE7C"/>
<stop offset="1" stop-color="#00FF66"/>
</linearGradient>
<linearGradient id="paint1_linear_420_6697" x1="7" y1="12.4994" x2="14.0002" y2="12.4994" gradientUnits="userSpaceOnUse">
<stop stop-color="#06FEF1"/>
<stop offset="0.166667" stop-color="#05FEEC"/>
<stop offset="0.333333" stop-color="#05FEDE"/>
<stop offset="0.5" stop-color="#04FEC6"/>
<stop offset="0.666667" stop-color="#02FEA6"/>
<stop offset="0.833333" stop-color="#00FE7C"/>
<stop offset="1" stop-color="#00FF66"/>
</linearGradient>
</defs>
</svg>
