<svg width="24" height="24" viewBox="0 0 24 24" fill="none" xmlns="http://www.w3.org/2000/svg">
<path fill-rule="evenodd" clip-rule="evenodd" d="M11 3C11 2.44772 11.4477 2 12 2C15.2097 2 18 4.3604 18 7.5C18 8.85381 17.4812 10.0627 16.6336 11H21C21.5523 11 22 11.4477 22 12C22 15.2097 19.6396 18 16.5 18C15.1462 18 13.9373 17.4812 13 16.6336V21C13 21.5523 12.5523 22 12 22C8.79034 22 6 19.6396 6 16.5C6 15.1462 6.51883 13.9373 7.36638 13H3C2.44772 13 2 12.5523 2 12C2 8.79034 4.3604 6 7.5 6C8.85381 6 10.0627 6.51883 11 7.36638V3ZM10.8917 11C10.4949 9.21811 9.06263 8 7.5 8C5.93737 8 4.50508 9.21811 4.10833 11H10.8917ZM11 13.1083C9.21811 13.5051 8 14.9374 8 16.5C8 18.0626 9.21811 19.4949 11 19.8917V13.1083ZM13.1083 13H19.8917C19.4949 14.7819 18.0626 16 16.5 16C14.9374 16 13.5051 14.7819 13.1083 13ZM13 10.8917C14.7819 10.4949 16 9.06263 16 7.5C16 5.93737 14.7819 4.50508 13 4.10833V10.8917Z" fill="url(#paint0_linear_420_6872)"/>
<defs>
<linearGradient id="paint0_linear_420_6872" x1="2" y1="12" x2="22.0015" y2="12" gradientUnits="userSpaceOnUse">
<stop stop-color="#06FEF1"/>
<stop offset="0.166667" stop-color="#05FEEC"/>
<stop offset="0.333333" stop-color="#05FEDE"/>
<stop offset="0.5" stop-color="#04FEC6"/>
<stop offset="0.666667" stop-color="#02FEA6"/>
<stop offset="0.833333" stop-color="#00FE7C"/>
<stop offset="1" stop-color="#00FF66"/>
</linearGradient>
</defs>
</svg>
